<svg xmlns="http://www.w3.org/2000/svg" xmlns:xlink="http://www.w3.org/1999/xlink" width="2000" zoomAndPan="magnify" viewBox="0 0 1500 1499.999933" height="2000" preserveAspectRatio="xMidYMid meet" version="1.0"><rect x="-150" width="1800" fill="#ffffff" y="-149.999993" height="1799.99992" fill-opacity="1"/><rect x="-150" width="1800" fill="#10b981" y="-149.999993" height="1799.99992" fill-opacity="1"/><path fill="#ffffff" d="M 1250.839844 567.097656 C 1250.136719 565.921875 1249.195312 564.984375 1248.492188 563.8125 C 1233.007812 544.101562 1206.960938 533.308594 1182.324219 536.125 C 1155.105469 539.175781 1134.925781 552.550781 1124.132812 560.292969 C 1124.132812 560.292969 1057.730469 607.457031 949.089844 652.742188 C 930.554688 660.484375 927.503906 657.433594 926.800781 656.496094 C 926.097656 655.554688 925.863281 654.148438 926.566406 652.273438 C 939.941406 606.046875 954.488281 559.824219 963.167969 512.660156 C 973.726562 460.335938 980.296875 407.304688 982.878906 354.042969 C 984.289062 327.058594 984.050781 298.433594 969.738281 275.671875 C 947.449219 240.007812 890.429688 233.4375 860.398438 263 C 841.625 281.539062 834.820312 308.757812 829.1875 334.566406 C 821.914062 367.417969 815.109375 400.5 809.011719 433.585938 C 805.960938 450.246094 803.613281 467.140625 801.5 484.035156 C 798.6875 506.324219 797.511719 520.871094 791.882812 522.046875 C 789.769531 522.515625 786.015625 521.8125 779.914062 511.253906 C 773.578125 500.457031 767.480469 489.664062 760.910156 479.105469 C 748.941406 459.398438 736.507812 440.15625 723.367188 421.382812 C 697.320312 383.609375 668.695312 347.472656 637.722656 313.214844 C 619.421875 292.800781 599.242188 272.621094 573.664062 263.238281 C 553.015625 255.726562 528.144531 257.136719 510.3125 270.511719 C 491.304688 284.355469 474.882812 296.320312 476.757812 322.835938 C 477.929688 339.261719 485.441406 354.746094 492.949219 369.527344 C 506.792969 396.042969 522.042969 422.089844 538.46875 447.195312 C 538.703125 447.664062 549.027344 462.679688 569.207031 492.480469 C 583.988281 514.066406 596.191406 532.136719 594.078125 533.777344 C 593.140625 534.480469 590.792969 530.960938 583.519531 527.441406 C 576.480469 524.15625 569.675781 520.871094 562.636719 518.058594 C 548.558594 512.425781 534.246094 507.261719 519.699219 502.570312 C 490.835938 492.949219 461.273438 485.207031 431.472656 479.105469 C 413.171875 475.351562 394.867188 472.300781 376.566406 469.957031 C 354.511719 467.140625 331.28125 465.261719 310.632812 473.476562 C 287.167969 482.859375 269.335938 505.386719 265.582031 530.492188 C 262.0625 555.597656 272.621094 582.113281 292.566406 597.835938 C 308.285156 610.035156 328.230469 615.433594 347.472656 620.59375 C 413.875 638.898438 478.871094 661.65625 542.222656 689.109375 C 536.59375 686.765625 512.894531 698.964844 506.792969 701.078125 C 493.886719 705.769531 481.214844 710.695312 468.546875 715.859375 C 443.203125 726.183594 418.332031 737.679688 394.164062 750.117188 C 348.878906 773.347656 294.675781 800.09375 260.886719 839.28125 C 236.25 868.140625 231.324219 910.375 256.664062 940.644531 C 273.089844 960.121094 299.839844 970.445312 324.945312 966.691406 C 347 963.40625 366.476562 950.5 385.484375 938.769531 C 433.820312 908.734375 485.207031 883.628906 538.703125 863.917969 C 556.535156 857.347656 573.195312 843.972656 579.53125 849.839844 C 586.101562 855.941406 575.542969 877.058594 571.789062 885.035156 C 524.390625 983.585938 516.882812 1112.167969 515.707031 1124.605469 C 511.953125 1161.441406 511.484375 1202.503906 535.417969 1230.660156 C 565.921875 1266.5625 632.089844 1260.695312 655.789062 1219.867188 C 665.878906 1202.503906 668.460938 1181.855469 671.277344 1161.914062 C 680.191406 1099.027344 688.40625 1067.585938 688.40625 1067.585938 C 701.542969 988.746094 704.828125 974.902344 711.164062 974.433594 C 717.5 973.730469 720.550781 987.339844 742.839844 1028.167969 C 748.472656 1038.726562 760.441406 1060.3125 777.332031 1086.359375 C 801.5 1123.898438 828.25 1159.332031 857.816406 1192.882812 C 877.289062 1214.941406 899.816406 1237.230469 928.910156 1242.628906 C 971.382812 1250.136719 1015.496094 1210.25 1012.210938 1167.308594 C 1010.800781 1150.414062 1006.578125 1138.214844 994.140625 1116.625 C 968.800781 1072.75 900.988281 983.117188 898.644531 972.320312 C 898.644531 972.320312 898.644531 972.085938 898.644531 971.851562 C 900.519531 967.628906 949.796875 989.683594 1007.28125 1007.519531 C 1019.25 1011.273438 1064.300781 1023.003906 1122.960938 1032.390625 C 1145.015625 1035.910156 1168.480469 1038.492188 1189.597656 1030.746094 C 1231.128906 1015.261719 1248.023438 955.664062 1220.335938 920.9375 C 1206.023438 902.867188 1188.660156 893.246094 1158.390625 883.160156 C 1032.386719 841.625 969.035156 835.996094 967.863281 820.507812 C 966.921875 808.777344 1003.058594 804.085938 1084.246094 766.308594 C 1088.9375 764.195312 1139.148438 738.386719 1199.6875 698.496094 C 1224.558594 682.070312 1250.371094 662.832031 1260.460938 634.671875 C 1267.96875 612.617188 1264.449219 586.570312 1250.839844 567.097656 Z M 1250.839844 567.097656 " fill-opacity="1" fill-rule="nonzero"/><path fill="#10b981" d="M 590.558594 1260.226562 C 566.859375 1260.226562 545.039062 1250.839844 530.960938 1234.417969 C 505.621094 1204.382812 506.089844 1161.675781 509.84375 1123.898438 C 509.84375 1123.195312 510.078125 1122.023438 510.078125 1120.144531 C 517.585938 1026.757812 537.53125 942.289062 566.390625 882.21875 L 567.09375 880.8125 C 576.480469 860.867188 576.246094 855.472656 575.542969 853.828125 C 572.960938 853.359375 564.75 857.582031 559.117188 860.632812 C 553.484375 863.449219 547.152344 866.734375 540.816406 869.078125 C 487.785156 888.554688 436.636719 913.660156 388.769531 943.460938 L 384.542969 946.042969 C 366.476562 957.304688 347.707031 969.035156 325.882812 972.085938 C 298.902344 976.078125 270.039062 965.046875 252.207031 943.929688 C 226.394531 912.957031 228.039062 868.140625 256.429688 835.058594 C 289.515625 796.8125 340.433594 770.53125 385.484375 747.535156 L 391.347656 744.484375 C 415.988281 731.816406 441.09375 720.316406 466.199219 709.992188 C 479.808594 704.597656 492.246094 699.667969 504.679688 695.210938 C 506.089844 694.742188 508.90625 693.570312 511.953125 692.160156 C 516.179688 690.285156 520.167969 688.640625 523.453125 687.234375 C 466.199219 663.300781 406.601562 642.652344 345.828125 625.992188 C 327.058594 620.828125 305.707031 615.199219 288.8125 602.292969 C 267.222656 585.398438 255.726562 556.773438 259.714844 529.554688 C 263.703125 502.335938 282.945312 478.167969 308.285156 467.84375 C 330.578125 458.925781 355.449219 461.273438 377.035156 463.855469 C 395.339844 466.199219 414.109375 469.25 432.410156 473.003906 C 463.382812 479.339844 493.183594 487.320312 521.339844 496.703125 C 535.886719 501.398438 550.4375 506.558594 564.515625 512.425781 C 569.675781 514.539062 574.839844 516.882812 580 519.230469 C 575.074219 511.488281 568.738281 502.335938 564.046875 495.53125 C 553.25 479.574219 545.273438 467.84375 540.113281 460.335938 C 534.949219 452.59375 533.542969 450.714844 533.074219 450.011719 C 516.648438 424.902344 501.160156 398.625 487.316406 371.875 C 479.105469 355.683594 471.597656 339.964844 470.421875 322.835938 C 468.3125 293.035156 486.847656 279.660156 506.324219 265.347656 C 524.625 251.738281 550.90625 248.453125 575.074219 257.371094 C 602.761719 267.460938 623.878906 289.28125 641.476562 308.992188 C 672.449219 343.484375 701.542969 380.085938 727.589844 417.863281 C 740.261719 435.933594 752.695312 454.9375 765.367188 475.820312 C 770.058594 483.328125 774.753906 491.308594 779.210938 499.050781 C 780.851562 502.101562 782.730469 505.152344 784.375 508.203125 C 786.953125 512.660156 788.832031 514.773438 789.769531 515.476562 C 791.648438 511.488281 793.054688 499.988281 794.226562 489.664062 L 794.933594 483.09375 C 797.511719 462.445312 799.859375 446.726562 802.441406 432.414062 C 808.304688 400.972656 815.109375 367.652344 822.621094 333.160156 C 828.71875 305.003906 835.992188 278.019531 855.46875 258.777344 C 870.957031 243.527344 894.183594 236.253906 918.117188 239.070312 C 942.050781 241.882812 962.464844 254.085938 973.964844 272.621094 C 989.449219 297.492188 989.449219 327.761719 988.042969 354.511719 C 985.460938 408.011719 978.890625 461.742188 968.332031 514.066406 C 961.058594 553.957031 949.324219 593.609375 938.0625 631.859375 C 936.1875 638.664062 934.074219 645.230469 932.195312 652.035156 C 934.542969 651.566406 939 650.628906 946.277344 647.578125 C 1053.039062 602.996094 1119.441406 556.304688 1120.144531 555.835938 C 1133.050781 546.449219 1153.699219 533.777344 1181.152344 530.726562 C 1207.902344 527.675781 1235.824219 539.410156 1252.480469 560.527344 L 1252.953125 561.230469 C 1253.1875 561.699219 1253.421875 561.933594 1253.65625 562.402344 C 1254.125 562.875 1254.59375 563.578125 1255.0625 564.515625 C 1269.609375 585.398438 1273.601562 613.085938 1265.386719 637.253906 C 1254.59375 667.757812 1227.140625 687.703125 1202.269531 704.128906 C 1141.027344 744.484375 1091.050781 770.0625 1085.886719 772.40625 C 1050.925781 788.597656 1024.644531 798.6875 1005.40625 805.960938 C 989.683594 812.0625 974.902344 817.695312 973.023438 820.742188 C 974.902344 825.90625 1004.230469 833.648438 1032.859375 841.15625 C 1063.832031 849.371094 1106.066406 860.632812 1159.5625 878.230469 C 1192.882812 889.257812 1209.777344 899.816406 1224.324219 917.886719 C 1238.402344 935.484375 1242.863281 960.589844 1236.058594 984.992188 C 1229.253906 1009.628906 1212.359375 1028.871094 1191.007812 1036.847656 C 1168.011719 1045.296875 1143.140625 1042.246094 1121.316406 1038.726562 C 1060.3125 1028.871094 1015.730469 1017.136719 1004.699219 1013.617188 C 978.890625 1005.640625 954.957031 996.726562 935.480469 989.683594 C 925.390625 985.929688 915.304688 982.175781 908.027344 979.832031 C 915.066406 991.09375 928.675781 1010.804688 941.347656 1028.636719 C 961.996094 1058.199219 985.460938 1091.753906 998.367188 1114.046875 C 1011.035156 1136.101562 1015.730469 1149.007812 1017.136719 1167.074219 C 1018.78125 1189.128906 1008.925781 1211.890625 990.855469 1228.550781 C 972.554688 1244.976562 948.855469 1252.71875 927.035156 1248.730469 C 896.765625 1243.097656 873.300781 1220.574219 852.652344 1197.109375 C 823.089844 1163.554688 795.871094 1127.417969 771.703125 1089.878906 C 754.574219 1063.597656 742.605469 1041.777344 736.976562 1031.21875 C 728.996094 1016.667969 723.367188 1005.40625 719.378906 997.195312 C 715.859375 990.15625 712.808594 984.054688 710.929688 981.472656 C 706.941406 989.214844 701.074219 1023.003906 693.332031 1068.757812 L 693.332031 1069.230469 C 693.332031 1069.464844 685.121094 1101.140625 676.4375 1162.851562 L 676.203125 1165.195312 C 673.386719 1184.90625 670.570312 1205.320312 660.246094 1222.917969 C 648.28125 1243.800781 624.816406 1257.644531 598.066406 1259.992188 C 595.957031 1260.226562 593.140625 1260.226562 590.558594 1260.226562 Z M 575.542969 842.566406 C 578.59375 842.566406 581.171875 843.503906 583.519531 845.617188 C 592.203125 853.59375 585.164062 870.722656 577.652344 886.207031 L 576.949219 887.617188 C 548.558594 946.511719 529.082031 1029.574219 521.808594 1121.320312 C 521.574219 1122.960938 521.574219 1124.371094 521.574219 1125.074219 C 518.054688 1160.503906 517.351562 1200.160156 539.878906 1226.671875 C 553.015625 1242.160156 574.605469 1250.136719 597.597656 1248.027344 C 620.59375 1245.914062 640.539062 1234.179688 650.628906 1216.816406 C 659.777344 1201.097656 662.359375 1181.855469 664.941406 1163.320312 L 665.175781 1160.972656 C 673.621094 1100.671875 681.601562 1069.699219 682.304688 1066.179688 C 688.640625 1028.636719 692.863281 1004 696.382812 990.15625 C 699.199219 978.65625 702.25 969.039062 710.460938 968.566406 C 718.4375 967.628906 721.957031 974.667969 730.40625 991.796875 C 734.394531 1000.007812 740.027344 1011.039062 747.769531 1025.351562 C 753.402344 1035.910156 765.132812 1057.261719 782.027344 1083.074219 C 805.960938 1120.144531 832.945312 1155.8125 862.039062 1188.894531 C 881.28125 1210.71875 903.101562 1231.835938 929.851562 1236.761719 C 947.917969 1240.046875 968.097656 1233.476562 983.816406 1219.398438 C 999.304688 1205.320312 1007.75 1186.082031 1006.34375 1167.777344 C 1004.9375 1151.589844 1000.945312 1140.324219 988.980469 1119.675781 C 976.308594 1097.855469 953.082031 1064.535156 932.667969 1035.207031 C 905.449219 996.253906 894.183594 979.597656 893.011719 973.730469 L 892.777344 973.027344 L 892.777344 970.679688 L 893.246094 969.507812 C 896.0625 963.171875 904.039062 965.753906 912.019531 968.097656 C 919.058594 970.445312 928.910156 973.964844 940.410156 978.1875 C 959.648438 985.226562 983.347656 993.910156 1008.925781 1001.886719 C 1022.300781 1006.109375 1068.054688 1017.609375 1123.898438 1026.523438 C 1144.078125 1029.808594 1167.308594 1032.625 1187.488281 1025.117188 C 1205.320312 1018.546875 1219.398438 1001.886719 1225.265625 981.003906 C 1230.894531 960.355469 1227.375 939.238281 1215.644531 924.457031 C 1202.738281 908.265625 1187.253906 898.878906 1156.515625 888.554688 C 1103.25 870.957031 1061.25 859.929688 1030.511719 851.714844 C 982.878906 839.046875 962.933594 833.882812 961.996094 820.742188 C 961.058594 809.714844 973.023438 805.023438 1001.886719 794.230469 C 1020.890625 786.957031 1047.171875 777.101562 1081.664062 760.910156 C 1086.355469 758.796875 1136.804688 732.753906 1196.402344 693.570312 C 1219.632812 678.316406 1245.207031 659.546875 1254.828125 632.5625 C 1261.867188 612.148438 1258.347656 588.214844 1245.914062 570.382812 L 1245.675781 570.148438 C 1245.441406 569.679688 1245.207031 569.441406 1244.972656 568.972656 C 1244.503906 568.503906 1244.035156 567.800781 1243.566406 567.097656 C 1229.253906 549.265625 1205.554688 539.175781 1182.792969 541.753906 C 1158.15625 544.570312 1139.386719 556.304688 1127.417969 564.75 C 1126.714844 565.21875 1059.136719 612.851562 951.203125 657.902344 C 934.777344 664.707031 926.097656 665.175781 921.871094 659.78125 C 919.996094 657.199219 919.527344 653.679688 920.699219 650.160156 C 922.8125 642.886719 924.921875 635.378906 927.035156 628.101562 C 938.296875 590.089844 949.796875 550.671875 957.070312 511.253906 C 967.628906 459.398438 974.199219 406.367188 976.777344 353.339844 C 978.1875 328.464844 978.1875 300.308594 964.578125 278.488281 C 954.957031 263.238281 937.359375 252.675781 917.179688 250.332031 C 897 247.984375 877.054688 254.085938 864.152344 266.757812 C 847.023438 283.648438 840.21875 308.992188 834.585938 335.507812 C 827.078125 369.761719 820.273438 403.082031 814.40625 434.289062 C 811.824219 448.601562 809.480469 463.855469 806.898438 484.503906 L 806.195312 491.074219 C 803.378906 513.363281 801.972656 525.566406 792.820312 527.675781 C 784.609375 529.554688 778.507812 520.871094 774.519531 514.066406 C 772.875 511.015625 771 507.96875 769.355469 504.917969 C 764.898438 497.410156 760.441406 489.429688 755.746094 481.921875 C 743.078125 461.273438 730.875 442.503906 718.4375 424.433594 C 692.628906 387.128906 664.003906 350.757812 633.265625 316.734375 C 616.605469 298.199219 596.660156 277.550781 571.554688 268.398438 C 551.140625 260.890625 528.847656 263.472656 513.832031 274.96875 C 495.53125 288.34375 480.980469 298.902344 482.625 322.132812 C 483.796875 336.914062 490.367188 350.992188 498.109375 366.480469 C 511.953125 392.757812 526.972656 418.804688 543.398438 443.675781 L 543.632812 443.910156 C 544.335938 444.847656 546.679688 448.601562 550.203125 453.53125 C 555.363281 461.039062 563.339844 472.769531 574.132812 488.726562 C 581.410156 499.285156 588.214844 509.375 593.140625 517.117188 C 599.007812 526.269531 603.464844 533.777344 597.832031 538 C 593.84375 541.050781 589.855469 538 588.214844 536.828125 C 586.570312 535.65625 584.695312 534.011719 581.171875 532.371094 L 577.890625 530.726562 C 572.023438 527.910156 566.390625 525.332031 560.761719 522.984375 C 546.917969 517.351562 532.601562 512.191406 518.289062 507.734375 C 490.601562 498.582031 461.039062 490.605469 430.769531 484.503906 C 412.703125 480.75 394.398438 477.699219 376.332031 475.351562 C 356.152344 472.769531 332.921875 470.660156 313.214844 478.402344 C 291.625 487.085938 275.203125 507.734375 271.683594 530.726562 C 268.398438 553.957031 278.253906 578.125 296.554688 592.671875 C 311.335938 604.171875 330.578125 609.332031 349.347656 614.257812 C 416.457031 632.796875 482.15625 655.792969 544.804688 683.007812 C 546.679688 684.652344 547.621094 687.234375 546.917969 689.578125 C 545.976562 692.394531 543.160156 694.039062 540.113281 693.804688 L 540.582031 694.039062 C 537.0625 693.570312 522.511719 700.136719 516.882812 702.484375 C 513.363281 704.128906 510.546875 705.300781 508.667969 706.003906 C 496.46875 710.460938 484.03125 715.15625 470.65625 720.785156 C 446.019531 730.875 421.148438 742.375 396.746094 754.808594 L 390.644531 757.859375 C 346.53125 780.386719 296.789062 805.960938 265.113281 842.566406 C 240.476562 871.425781 238.832031 909.90625 260.890625 936.421875 C 276.140625 954.488281 300.777344 963.875 323.773438 960.355469 C 343.011719 957.539062 360.847656 946.511719 377.972656 935.71875 L 382.199219 933.136719 C 430.769531 902.867188 482.625 877.527344 536.355469 857.816406 C 542.222656 855.707031 547.855469 852.65625 553.484375 849.839844 C 561.933594 846.320312 569.441406 842.566406 575.542969 842.566406 Z M 575.542969 842.566406 " fill-opacity="1" fill-rule="nonzero"/></svg>
