<svg xmlns="http://www.w3.org/2000/svg" xmlns:xlink="http://www.w3.org/1999/xlink" width="2000" zoomAndPan="magnify" viewBox="0 0 1500 1499.999933" height="2000" preserveAspectRatio="xMidYMid meet" version="1.0"><defs><g/><clipPath id="a0dfd74cd1"><rect x="0" width="1154" y="0" height="319"/></clipPath></defs><path fill="#10b981" d="M 266.789062 651.816406 C 266.640625 651.566406 266.441406 651.363281 266.292969 651.113281 C 262.992188 646.917969 257.445312 644.621094 252.199219 645.21875 C 246.40625 645.867188 242.109375 648.714844 239.808594 650.367188 C 239.808594 650.367188 225.667969 660.410156 202.535156 670.050781 C 198.589844 671.699219 197.9375 671.050781 197.789062 670.851562 C 197.640625 670.652344 197.589844 670.351562 197.738281 669.953125 C 200.585938 660.109375 203.683594 650.265625 205.535156 640.222656 C 207.78125 629.082031 209.179688 617.789062 209.730469 606.445312 C 210.03125 600.699219 209.980469 594.605469 206.933594 589.757812 C 202.1875 582.164062 190.042969 580.765625 183.648438 587.058594 C 179.652344 591.007812 178.203125 596.804688 177.003906 602.300781 C 175.453125 609.292969 174.003906 616.339844 172.707031 623.382812 C 172.058594 626.933594 171.558594 630.53125 171.109375 634.125 C 170.507812 638.875 170.257812 641.972656 169.058594 642.222656 C 168.609375 642.320312 167.808594 642.171875 166.511719 639.921875 C 165.160156 637.625 163.863281 635.324219 162.464844 633.078125 C 159.914062 628.878906 157.265625 624.785156 154.46875 620.785156 C 148.921875 612.742188 142.828125 605.046875 136.230469 597.753906 C 132.335938 593.40625 128.039062 589.109375 122.589844 587.109375 C 118.195312 585.511719 112.898438 585.8125 109.101562 588.660156 C 105.054688 591.605469 101.554688 594.15625 101.957031 599.800781 C 102.207031 603.296875 103.804688 606.597656 105.402344 609.742188 C 108.351562 615.390625 111.597656 620.9375 115.097656 626.28125 C 115.148438 626.382812 117.34375 629.578125 121.640625 635.925781 C 124.789062 640.523438 127.386719 644.371094 126.9375 644.71875 C 126.738281 644.871094 126.238281 644.121094 124.691406 643.371094 C 123.191406 642.671875 121.742188 641.972656 120.242188 641.371094 C 117.246094 640.171875 114.199219 639.074219 111.097656 638.074219 C 104.953125 636.027344 98.660156 634.375 92.3125 633.078125 C 88.414062 632.277344 84.519531 631.628906 80.621094 631.128906 C 75.925781 630.53125 70.976562 630.128906 66.582031 631.878906 C 61.585938 633.878906 57.785156 638.671875 56.988281 644.019531 C 56.238281 649.367188 58.488281 655.011719 62.734375 658.359375 C 66.082031 660.957031 70.328125 662.105469 74.425781 663.207031 C 88.566406 667.105469 102.40625 671.949219 115.894531 677.796875 C 114.695312 677.296875 109.652344 679.894531 108.351562 680.34375 C 105.601562 681.34375 102.90625 682.394531 100.207031 683.492188 C 94.8125 685.691406 89.515625 688.140625 84.367188 690.789062 C 74.726562 695.734375 63.183594 701.429688 55.988281 709.773438 C 50.742188 715.917969 49.691406 724.914062 55.089844 731.359375 C 58.585938 735.507812 64.28125 737.703125 69.628906 736.90625 C 74.324219 736.207031 78.472656 733.457031 82.519531 730.960938 C 92.8125 724.5625 103.753906 719.21875 115.148438 715.019531 C 118.945312 713.621094 122.492188 710.773438 123.839844 712.023438 C 125.238281 713.320312 122.992188 717.816406 122.191406 719.515625 C 112.097656 740.503906 110.5 767.882812 110.25 770.53125 C 109.449219 778.375 109.351562 787.121094 114.445312 793.117188 C 120.941406 800.761719 135.03125 799.511719 140.078125 790.816406 C 142.226562 787.121094 142.777344 782.722656 143.378906 778.476562 C 145.277344 765.085938 147.023438 758.390625 147.023438 758.390625 C 149.824219 741.601562 150.523438 738.652344 151.871094 738.554688 C 153.21875 738.402344 153.871094 741.300781 158.617188 749.996094 C 159.816406 752.246094 162.363281 756.839844 165.960938 762.386719 C 171.109375 770.382812 176.804688 777.925781 183.097656 785.070312 C 187.246094 789.769531 192.042969 794.515625 198.238281 795.664062 C 207.28125 797.261719 216.675781 788.769531 215.976562 779.625 C 215.675781 776.027344 214.777344 773.429688 212.128906 768.832031 C 206.734375 759.488281 192.292969 740.402344 191.792969 738.105469 C 191.792969 738.105469 191.792969 738.054688 191.792969 738.003906 C 192.191406 737.105469 202.683594 741.800781 214.925781 745.597656 C 217.476562 746.398438 227.070312 748.898438 239.558594 750.894531 C 244.257812 751.644531 249.253906 752.195312 253.75 750.546875 C 262.59375 747.246094 266.191406 734.554688 260.296875 727.160156 C 257.246094 723.3125 253.550781 721.265625 247.105469 719.117188 C 220.273438 710.273438 206.78125 709.074219 206.53125 705.777344 C 206.332031 703.277344 214.027344 702.277344 231.316406 694.234375 C 232.316406 693.785156 243.007812 688.289062 255.898438 679.792969 C 261.195312 676.296875 266.691406 672.199219 268.839844 666.203125 C 270.4375 661.507812 269.6875 655.960938 266.789062 651.816406 Z M 266.789062 651.816406 " fill-opacity="1" fill-rule="nonzero"/><path fill="#10b981" d="M 126.1875 799.410156 C 121.140625 799.410156 116.496094 797.414062 113.496094 793.914062 C 108.101562 787.519531 108.203125 778.425781 109 770.382812 C 109 770.230469 109.050781 769.980469 109.050781 769.582031 C 110.648438 749.695312 114.898438 731.707031 121.042969 718.917969 L 121.191406 718.617188 C 123.191406 714.371094 123.140625 713.222656 122.992188 712.871094 C 122.441406 712.773438 120.691406 713.671875 119.492188 714.320312 C 118.292969 714.921875 116.945312 715.621094 115.597656 716.121094 C 104.304688 720.265625 93.410156 725.613281 83.21875 731.957031 L 82.320312 732.507812 C 78.472656 734.90625 74.476562 737.40625 69.828125 738.054688 C 64.082031 738.902344 57.9375 736.554688 54.140625 732.058594 C 48.644531 725.464844 48.992188 715.917969 55.039062 708.875 C 62.082031 700.730469 72.925781 695.132812 82.519531 690.238281 L 83.769531 689.589844 C 89.015625 686.890625 94.359375 684.441406 99.707031 682.242188 C 102.605469 681.09375 105.253906 680.042969 107.902344 679.09375 C 108.203125 678.996094 108.800781 678.746094 109.449219 678.445312 C 110.351562 678.046875 111.199219 677.695312 111.898438 677.398438 C 99.707031 672.300781 87.015625 667.902344 74.074219 664.355469 C 70.078125 663.257812 65.53125 662.058594 61.933594 659.308594 C 57.335938 655.710938 54.890625 649.617188 55.738281 643.820312 C 56.585938 638.023438 60.683594 632.878906 66.082031 630.679688 C 70.828125 628.78125 76.125 629.28125 80.722656 629.828125 C 84.617188 630.328125 88.617188 630.980469 92.511719 631.777344 C 99.109375 633.128906 105.453125 634.828125 111.449219 636.824219 C 114.546875 637.824219 117.644531 638.921875 120.644531 640.171875 C 121.742188 640.621094 122.839844 641.121094 123.941406 641.621094 C 122.890625 639.972656 121.542969 638.023438 120.542969 636.574219 C 118.246094 633.175781 116.546875 630.679688 115.445312 629.082031 C 114.347656 627.429688 114.046875 627.03125 113.949219 626.882812 C 110.449219 621.535156 107.152344 615.941406 104.203125 610.242188 C 102.457031 606.796875 100.855469 603.449219 100.605469 599.800781 C 100.15625 593.457031 104.105469 590.605469 108.25 587.558594 C 112.148438 584.660156 117.746094 583.960938 122.890625 585.859375 C 128.789062 588.007812 133.285156 592.65625 137.03125 596.851562 C 143.625 604.199219 149.824219 611.992188 155.367188 620.035156 C 158.066406 623.882812 160.714844 627.929688 163.414062 632.378906 C 164.414062 633.976562 165.410156 635.675781 166.359375 637.324219 C 166.710938 637.972656 167.109375 638.625 167.460938 639.273438 C 168.011719 640.222656 168.410156 640.671875 168.609375 640.820312 C 169.007812 639.972656 169.308594 637.523438 169.558594 635.324219 L 169.707031 633.925781 C 170.257812 629.53125 170.757812 626.183594 171.308594 623.132812 C 172.554688 616.4375 174.003906 609.34375 175.605469 602 C 176.902344 596.003906 178.453125 590.257812 182.597656 586.160156 C 185.898438 582.914062 190.84375 581.363281 195.941406 581.964844 C 201.035156 582.5625 205.382812 585.160156 207.832031 589.109375 C 211.128906 594.40625 211.128906 600.851562 210.828125 606.546875 C 210.28125 617.9375 208.882812 629.378906 206.632812 640.523438 C 205.082031 649.015625 202.585938 657.460938 200.1875 665.605469 C 199.789062 667.054688 199.335938 668.453125 198.9375 669.902344 C 199.4375 669.800781 200.386719 669.601562 201.9375 668.953125 C 224.671875 659.460938 238.808594 649.515625 238.960938 649.417969 C 241.707031 647.417969 246.105469 644.71875 251.949219 644.070312 C 257.648438 643.421875 263.59375 645.917969 267.140625 650.414062 L 267.242188 650.566406 C 267.289062 650.664062 267.339844 650.714844 267.390625 650.816406 C 267.488281 650.914062 267.589844 651.066406 267.691406 651.265625 C 270.789062 655.710938 271.636719 661.609375 269.886719 666.753906 C 267.589844 673.25 261.746094 677.496094 256.449219 680.992188 C 243.40625 689.589844 232.765625 695.035156 231.664062 695.535156 C 224.21875 698.980469 218.625 701.128906 214.527344 702.679688 C 211.179688 703.976562 208.03125 705.175781 207.632812 705.828125 C 208.03125 706.925781 214.277344 708.574219 220.375 710.171875 C 226.96875 711.921875 235.960938 714.320312 247.355469 718.066406 C 254.449219 720.417969 258.046875 722.664062 261.144531 726.511719 C 264.140625 730.257812 265.09375 735.605469 263.644531 740.800781 C 262.195312 746.046875 258.597656 750.144531 254.050781 751.84375 C 249.152344 753.644531 243.855469 752.992188 239.210938 752.246094 C 226.21875 750.144531 216.726562 747.648438 214.378906 746.898438 C 208.882812 745.199219 203.785156 743.300781 199.636719 741.800781 C 197.488281 741.003906 195.339844 740.203125 193.792969 739.703125 C 195.289062 742.101562 198.1875 746.296875 200.886719 750.097656 C 205.285156 756.390625 210.28125 763.535156 213.027344 768.28125 C 215.726562 772.980469 216.726562 775.726562 217.027344 779.574219 C 217.375 784.273438 215.277344 789.117188 211.429688 792.664062 C 207.53125 796.164062 202.484375 797.8125 197.839844 796.964844 C 191.394531 795.765625 186.398438 790.96875 182 785.96875 C 175.703125 778.824219 169.910156 771.132812 164.761719 763.136719 C 161.113281 757.539062 158.566406 752.894531 157.367188 750.644531 C 155.667969 747.546875 154.46875 745.148438 153.621094 743.402344 C 152.871094 741.902344 152.222656 740.601562 151.820312 740.054688 C 150.972656 741.703125 149.722656 748.898438 148.074219 758.640625 L 148.074219 758.738281 C 148.074219 758.789062 146.324219 765.535156 144.476562 778.675781 L 144.425781 779.175781 C 143.828125 783.371094 143.226562 787.71875 141.027344 791.464844 C 138.480469 795.914062 133.484375 798.863281 127.789062 799.359375 C 127.339844 799.410156 126.738281 799.410156 126.1875 799.410156 Z M 122.992188 710.472656 C 123.640625 710.472656 124.191406 710.671875 124.691406 711.121094 C 126.539062 712.820312 125.039062 716.46875 123.441406 719.765625 L 123.292969 720.066406 C 117.246094 732.609375 113.097656 750.296875 111.550781 769.832031 C 111.5 770.183594 111.5 770.480469 111.5 770.632812 C 110.75 778.175781 110.601562 786.621094 115.398438 792.265625 C 118.195312 795.5625 122.792969 797.261719 127.6875 796.8125 C 132.585938 796.363281 136.832031 793.863281 138.980469 790.167969 C 140.929688 786.820312 141.476562 782.722656 142.027344 778.777344 L 142.078125 778.277344 C 143.875 765.433594 145.574219 758.839844 145.726562 758.089844 C 147.074219 750.097656 147.972656 744.847656 148.722656 741.902344 C 149.324219 739.453125 149.972656 737.40625 151.722656 737.304688 C 153.421875 737.105469 154.167969 738.605469 155.96875 742.25 C 156.816406 744 158.015625 746.347656 159.664062 749.394531 C 160.863281 751.644531 163.363281 756.191406 166.960938 761.6875 C 172.058594 769.582031 177.804688 777.175781 184 784.222656 C 188.097656 788.867188 192.742188 793.367188 198.4375 794.414062 C 202.285156 795.113281 206.582031 793.714844 209.929688 790.71875 C 213.226562 787.71875 215.027344 783.621094 214.726562 779.726562 C 214.425781 776.277344 213.578125 773.878906 211.03125 769.480469 C 208.332031 764.835938 203.386719 757.742188 199.039062 751.496094 C 193.242188 743.199219 190.84375 739.652344 190.59375 738.402344 L 190.542969 738.253906 L 190.542969 737.753906 L 190.644531 737.503906 C 191.242188 736.15625 192.941406 736.707031 194.640625 737.203125 C 196.140625 737.703125 198.238281 738.453125 200.6875 739.351562 C 204.785156 740.851562 209.832031 742.699219 215.277344 744.398438 C 218.125 745.300781 227.867188 747.746094 239.757812 749.644531 C 244.054688 750.34375 249.003906 750.945312 253.300781 749.347656 C 257.097656 747.945312 260.09375 744.398438 261.34375 739.953125 C 262.542969 735.554688 261.792969 731.058594 259.296875 727.910156 C 256.546875 724.464844 253.25 722.464844 246.703125 720.265625 C 235.363281 716.519531 226.417969 714.171875 219.875 712.421875 C 209.730469 709.722656 205.484375 708.625 205.285156 705.828125 C 205.082031 703.476562 207.632812 702.480469 213.777344 700.179688 C 217.824219 698.632812 223.421875 696.535156 230.765625 693.085938 C 231.765625 692.636719 242.507812 687.089844 255.199219 678.746094 C 260.144531 675.496094 265.589844 671.5 267.640625 665.753906 C 269.140625 661.40625 268.390625 656.3125 265.742188 652.515625 L 265.691406 652.464844 C 265.640625 652.363281 265.589844 652.3125 265.542969 652.214844 C 265.441406 652.113281 265.339844 651.964844 265.242188 651.816406 C 262.195312 648.015625 257.148438 645.867188 252.300781 646.417969 C 247.054688 647.019531 243.058594 649.515625 240.507812 651.316406 C 240.359375 651.414062 225.96875 661.558594 202.984375 671.152344 C 199.488281 672.601562 197.640625 672.699219 196.738281 671.550781 C 196.339844 671 196.238281 670.25 196.488281 669.503906 C 196.941406 667.953125 197.390625 666.355469 197.839844 664.804688 C 200.238281 656.710938 202.6875 648.316406 204.234375 639.921875 C 206.484375 628.878906 207.882812 617.589844 208.429688 606.296875 C 208.730469 601 208.730469 595.003906 205.832031 590.359375 C 203.785156 587.109375 200.039062 584.863281 195.742188 584.363281 C 191.445312 583.863281 187.195312 585.160156 184.449219 587.859375 C 180.800781 591.457031 179.351562 596.851562 178.152344 602.5 C 176.554688 609.792969 175.105469 616.890625 173.855469 623.535156 C 173.304688 626.582031 172.804688 629.828125 172.257812 634.226562 L 172.105469 635.625 C 171.507812 640.371094 171.207031 642.96875 169.257812 643.421875 C 167.511719 643.820312 166.210938 641.972656 165.363281 640.523438 C 165.011719 639.871094 164.613281 639.222656 164.261719 638.574219 C 163.3125 636.976562 162.363281 635.277344 161.363281 633.675781 C 158.667969 629.28125 156.066406 625.28125 153.421875 621.4375 C 147.925781 613.492188 141.828125 605.746094 135.28125 598.5 C 131.734375 594.554688 127.488281 590.15625 122.140625 588.210938 C 117.792969 586.609375 113.046875 587.160156 109.851562 589.609375 C 105.953125 592.457031 102.855469 594.703125 103.207031 599.652344 C 103.453125 602.796875 104.855469 605.796875 106.503906 609.09375 C 109.449219 614.691406 112.648438 620.238281 116.144531 625.53125 L 116.195312 625.582031 C 116.347656 625.78125 116.84375 626.582031 117.59375 627.632812 C 118.695312 629.230469 120.394531 631.730469 122.691406 635.125 C 124.242188 637.375 125.6875 639.523438 126.738281 641.171875 C 127.988281 643.121094 128.9375 644.71875 127.738281 645.617188 C 126.886719 646.269531 126.039062 645.617188 125.6875 645.367188 C 125.339844 645.121094 124.941406 644.769531 124.191406 644.417969 L 123.492188 644.070312 C 122.242188 643.46875 121.042969 642.921875 119.84375 642.421875 C 116.894531 641.222656 113.847656 640.121094 110.800781 639.171875 C 104.902344 637.226562 98.609375 635.527344 92.164062 634.226562 C 88.316406 633.425781 84.417969 632.777344 80.570312 632.277344 C 76.273438 631.730469 71.328125 631.277344 67.128906 632.925781 C 62.535156 634.777344 59.035156 639.171875 58.285156 644.070312 C 57.585938 649.015625 59.6875 654.164062 63.582031 657.261719 C 66.730469 659.707031 70.828125 660.808594 74.824219 661.859375 C 89.113281 665.804688 103.105469 670.703125 116.445312 676.496094 C 116.84375 676.847656 117.046875 677.398438 116.894531 677.894531 C 116.695312 678.496094 116.097656 678.84375 115.445312 678.796875 L 115.546875 678.84375 C 114.796875 678.746094 111.699219 680.144531 110.5 680.644531 C 109.75 680.992188 109.152344 681.242188 108.75 681.394531 C 106.152344 682.34375 103.503906 683.34375 100.65625 684.542969 C 95.410156 686.691406 90.113281 689.136719 84.917969 691.785156 L 83.617188 692.4375 C 74.226562 697.234375 63.632812 702.679688 56.886719 710.472656 C 51.640625 716.621094 51.292969 724.8125 55.988281 730.460938 C 59.234375 734.308594 64.480469 736.304688 69.378906 735.554688 C 73.476562 734.957031 77.273438 732.609375 80.921875 730.308594 L 81.820312 729.761719 C 92.164062 723.316406 103.207031 717.917969 114.648438 713.722656 C 115.894531 713.273438 117.09375 712.621094 118.292969 712.023438 C 120.09375 711.273438 121.691406 710.472656 122.992188 710.472656 Z M 122.992188 710.472656 " fill-opacity="1" fill-rule="nonzero"/><g transform="matrix(1, 0, 0, 1, 286, 605)"><g clip-path="url(#a0dfd74cd1)"><g fill="#0c2337" fill-opacity="1"><g transform="translate(0.820634, 254.006663)"><g><path d="M 84.40625 3.09375 C 69.257812 3.09375 55.960938 -0.0859375 44.515625 -6.453125 C 33.078125 -12.816406 24.175781 -21.804688 17.8125 -33.421875 C 11.445312 -45.035156 8.265625 -58.585938 8.265625 -74.078125 C 8.265625 -89.046875 11.40625 -102.164062 17.6875 -113.4375 C 23.96875 -124.71875 32.828125 -133.539062 44.265625 -139.90625 C 55.710938 -146.269531 69.09375 -149.453125 84.40625 -149.453125 C 102.820312 -149.453125 118.4375 -144.757812 131.25 -135.375 C 144.070312 -126 152.378906 -113.398438 156.171875 -97.578125 L 108.671875 -97.578125 C 104.878906 -109.273438 96.789062 -115.125 84.40625 -115.125 C 74.769531 -115.125 67.113281 -111.46875 61.4375 -104.15625 C 55.757812 -96.84375 52.921875 -86.816406 52.921875 -74.078125 C 52.921875 -60.828125 55.757812 -50.414062 61.4375 -42.84375 C 67.113281 -35.269531 74.769531 -31.484375 84.40625 -31.484375 C 91.800781 -31.484375 97.4375 -33.160156 101.3125 -36.515625 C 105.1875 -39.878906 107.8125 -44.570312 109.1875 -50.59375 L 156.421875 -50.59375 C 152.804688 -33.726562 144.503906 -20.5625 131.515625 -11.09375 C 118.523438 -1.632812 102.820312 3.09375 84.40625 3.09375 Z M 84.40625 3.09375 "/></g></g></g><g fill="#0c2337" fill-opacity="1"><g transform="translate(157.759864, 254.006663)"><g><path d="M 76.140625 0 L 46.984375 0 C 36.304688 0 28.039062 -2.535156 22.1875 -7.609375 C 16.34375 -12.691406 13.421875 -19.878906 13.421875 -29.171875 L 13.421875 -196.953125 L 56.78125 -196.953125 L 56.78125 -44.140625 C 56.78125 -40.179688 57.769531 -37.6875 59.75 -36.65625 C 61.726562 -35.625 63.582031 -35.109375 65.3125 -35.109375 L 76.140625 -35.109375 Z M 76.140625 0 "/></g></g></g><g fill="#0c2337" fill-opacity="1"><g transform="translate(233.390134, 254.006663)"><g><path d="M 35.875 -156.421875 C 29.164062 -156.421875 23.398438 -158.398438 18.578125 -162.359375 C 13.765625 -166.316406 11.359375 -171.738281 11.359375 -178.625 C 11.359375 -185.507812 13.765625 -190.972656 18.578125 -195.015625 C 23.398438 -199.054688 29.164062 -201.078125 35.875 -201.078125 C 42.59375 -201.078125 48.359375 -199.054688 53.171875 -195.015625 C 57.992188 -190.972656 60.40625 -185.507812 60.40625 -178.625 C 60.40625 -171.738281 57.992188 -166.316406 53.171875 -162.359375 C 48.359375 -158.398438 42.59375 -156.421875 35.875 -156.421875 Z M 57.5625 0 L 14.203125 0 L 14.203125 -146.359375 L 57.5625 -146.359375 Z M 57.5625 0 "/></g></g></g><g fill="#0c2337" fill-opacity="1"><g transform="translate(298.695404, 254.006663)"><g><path d="M 84.40625 3.09375 C 69.257812 3.09375 55.960938 -0.0859375 44.515625 -6.453125 C 33.078125 -12.816406 24.175781 -21.804688 17.8125 -33.421875 C 11.445312 -45.035156 8.265625 -58.585938 8.265625 -74.078125 C 8.265625 -89.046875 11.40625 -102.164062 17.6875 -113.4375 C 23.96875 -124.71875 32.828125 -133.539062 44.265625 -139.90625 C 55.710938 -146.269531 69.09375 -149.453125 84.40625 -149.453125 C 102.820312 -149.453125 118.4375 -144.757812 131.25 -135.375 C 144.070312 -126 152.378906 -113.398438 156.171875 -97.578125 L 108.671875 -97.578125 C 104.878906 -109.273438 96.789062 -115.125 84.40625 -115.125 C 74.769531 -115.125 67.113281 -111.46875 61.4375 -104.15625 C 55.757812 -96.84375 52.921875 -86.816406 52.921875 -74.078125 C 52.921875 -60.828125 55.757812 -50.414062 61.4375 -42.84375 C 67.113281 -35.269531 74.769531 -31.484375 84.40625 -31.484375 C 91.800781 -31.484375 97.4375 -33.160156 101.3125 -36.515625 C 105.1875 -39.878906 107.8125 -44.570312 109.1875 -50.59375 L 156.421875 -50.59375 C 152.804688 -33.726562 144.503906 -20.5625 131.515625 -11.09375 C 118.523438 -1.632812 102.820312 3.09375 84.40625 3.09375 Z M 84.40625 3.09375 "/></g></g></g><g fill="#0c2337" fill-opacity="1"><g transform="translate(455.634634, 254.006663)"><g><path d="M 57.5625 0 L 14.203125 0 L 14.203125 -146.359375 L 57.5625 -146.359375 L 57.5625 -130.609375 C 62.207031 -137.492188 67.800781 -142.351562 74.34375 -145.1875 C 80.882812 -148.03125 87.765625 -149.453125 94.984375 -149.453125 C 114.609375 -149.453125 127 -142.394531 132.15625 -128.28125 C 136.457031 -135 141.789062 -140.207031 148.15625 -143.90625 C 154.53125 -147.601562 162.707031 -149.453125 172.6875 -149.453125 C 189.207031 -149.453125 201.296875 -144.585938 208.953125 -134.859375 C 216.609375 -125.140625 220.4375 -112.363281 220.4375 -96.53125 L 220.4375 0 L 177.078125 0 L 177.078125 -92.671875 C 177.078125 -100.753906 175.484375 -106.429688 172.296875 -109.703125 C 169.109375 -112.972656 164.503906 -114.609375 158.484375 -114.609375 C 152.296875 -114.609375 147.738281 -112.882812 144.8125 -109.4375 C 142.570312 -106.863281 141.0625 -103.550781 140.28125 -99.5 C 139.507812 -95.457031 139.125 -90.515625 139.125 -84.671875 L 139.125 0 L 95.765625 0 L 95.765625 -92.671875 C 95.765625 -100.753906 94.171875 -106.429688 90.984375 -109.703125 C 87.804688 -112.972656 83.03125 -114.609375 76.65625 -114.609375 C 70.632812 -114.609375 66.160156 -112.800781 63.234375 -109.1875 C 61.347656 -106.945312 59.929688 -103.929688 58.984375 -100.140625 C 58.035156 -96.359375 57.5625 -91.203125 57.5625 -84.671875 Z M 57.5625 0 "/></g></g></g><g fill="#0c2337" fill-opacity="1"><g transform="translate(682.783488, 254.006663)"><g><path d="M 84.671875 3.09375 C 69.179688 3.09375 55.710938 -0.171875 44.265625 -6.703125 C 32.828125 -13.242188 23.96875 -22.148438 17.6875 -33.421875 C 11.40625 -44.691406 8.265625 -57.554688 8.265625 -72.015625 C 8.265625 -81.304688 9.679688 -90.507812 12.515625 -99.625 C 15.359375 -108.75 19.832031 -117.097656 25.9375 -124.671875 C 32.050781 -132.242188 39.835938 -138.265625 49.296875 -142.734375 C 58.765625 -147.210938 70.125 -149.453125 83.375 -149.453125 C 93.007812 -149.453125 102.34375 -148.03125 111.375 -145.1875 C 120.414062 -142.351562 128.503906 -137.835938 135.640625 -131.640625 C 142.785156 -125.441406 148.460938 -117.394531 152.671875 -107.5 C 156.890625 -97.613281 159 -85.613281 159 -71.5 L 159 -64.015625 L 53.6875 -64.015625 C 54.894531 -56.097656 57.390625 -49.816406 61.171875 -45.171875 C 64.273438 -41.390625 68.019531 -38.59375 72.40625 -36.78125 C 76.789062 -34.976562 81.648438 -34.078125 86.984375 -34.078125 C 93.523438 -34.078125 99.078125 -35.707031 103.640625 -38.96875 C 108.203125 -42.238281 111.34375 -46.113281 113.0625 -50.59375 L 156.6875 -50.59375 C 153.925781 -40.957031 149.535156 -32.050781 143.515625 -23.875 C 137.492188 -15.695312 129.617188 -9.15625 119.890625 -4.25 C 110.171875 0.644531 98.429688 3.09375 84.671875 3.09375 Z M 54.984375 -94.734375 L 115.125 -94.734375 C 114.78125 -96.453125 114.132812 -98.515625 113.1875 -100.921875 C 112.238281 -103.335938 110.5625 -105.660156 108.15625 -107.890625 C 105.0625 -110.992188 101.535156 -113.191406 97.578125 -114.484375 C 93.617188 -115.773438 89.398438 -116.421875 84.921875 -116.421875 C 80.617188 -116.421875 76.445312 -115.773438 72.40625 -114.484375 C 68.363281 -113.191406 64.789062 -110.992188 61.6875 -107.890625 C 59.28125 -105.484375 57.644531 -103.117188 56.78125 -100.796875 C 55.925781 -98.472656 55.328125 -96.453125 54.984375 -94.734375 Z M 54.984375 -94.734375 "/></g></g></g><g fill="#0c2337" fill-opacity="1"><g transform="translate(843.594551, 254.006663)"><g><path d="M 57.5625 0 L 14.203125 0 L 14.203125 -146.359375 L 57.5625 -146.359375 L 57.5625 -130.609375 C 62.550781 -138.003906 68.097656 -142.992188 74.203125 -145.578125 C 80.316406 -148.160156 87.242188 -149.453125 94.984375 -149.453125 C 104.617188 -149.453125 112.578125 -148.289062 118.859375 -145.96875 C 125.140625 -143.644531 130.128906 -140.546875 133.828125 -136.671875 C 137.535156 -132.804688 140.335938 -128.632812 142.234375 -124.15625 C 145.148438 -117.789062 146.820312 -111.421875 147.25 -105.046875 C 147.6875 -98.679688 147.90625 -90.941406 147.90625 -81.828125 L 147.90625 0 L 104.546875 0 L 104.546875 -82.34375 C 104.546875 -89.570312 104.070312 -95.289062 103.125 -99.5 C 102.175781 -103.71875 100.582031 -106.945312 98.34375 -109.1875 C 94.90625 -112.800781 89.570312 -114.609375 82.34375 -114.609375 C 77.863281 -114.609375 73.988281 -114.046875 70.71875 -112.921875 C 67.457031 -111.804688 64.878906 -109.875 62.984375 -107.125 C 61.265625 -104.71875 59.929688 -101.578125 58.984375 -97.703125 C 58.035156 -93.828125 57.5625 -88.707031 57.5625 -82.34375 Z M 57.5625 0 "/></g></g></g><g fill="#0c2337" fill-opacity="1"><g transform="translate(998.210695, 254.006663)"><g><path d="M 66.078125 3.09375 C 42.160156 3.09375 26.414062 -5.335938 18.84375 -22.203125 C 17.289062 -25.640625 16.128906 -29.078125 15.359375 -32.515625 C 14.585938 -35.960938 14.03125 -40.179688 13.6875 -45.171875 C 13.34375 -50.160156 13.171875 -56.613281 13.171875 -64.53125 L 13.171875 -146.359375 L 56.53125 -146.359375 L 56.53125 -64.015625 C 56.53125 -56.785156 57.003906 -51.101562 57.953125 -46.96875 C 58.898438 -42.84375 60.488281 -39.578125 62.71875 -37.171875 C 66.164062 -33.554688 71.503906 -31.75 78.734375 -31.75 C 83.546875 -31.75 87.5 -32.394531 90.59375 -33.6875 C 93.695312 -34.976562 96.195312 -36.828125 98.09375 -39.234375 C 101.707031 -44.054688 103.515625 -52.316406 103.515625 -64.015625 L 103.515625 -146.359375 L 146.875 -146.359375 L 146.875 0 L 103.515625 0 L 103.515625 -15.75 C 99.210938 -9.207031 94.09375 -4.429688 88.15625 -1.421875 C 82.21875 1.585938 74.859375 3.09375 66.078125 3.09375 Z M 66.078125 3.09375 "/></g></g></g></g></g></svg>
